<?xml version="1.0" encoding="utf-8"?>
<!-- Generator: Adobe Illustrator 19.0.0, SVG Export Plug-In . SVG Version: 6.00 Build 0)  -->
<svg version="1.1" id="Layer_1" xmlns="http://www.w3.org/2000/svg" xmlns:xlink="http://www.w3.org/1999/xlink" x="0px" y="0px"
	 viewBox="0 0 500 500" style="enable-background:new 0 0 500 500;" xml:space="preserve">
<style type="text/css">
	.st0{fill:#FF3F94;}
	.st1{fill:#2E0013;}
</style>
<g id="XMLID_23_">
	<rect id="XMLID_26_" x="67.5" y="67.5" class="st0" width="365" height="365"/>
	<rect id="XMLID_27_" x="83.6" y="83.6" class="st1" width="332.9" height="332.9"/>
	<path id="XMLID_31_" class="st0" d="M202.7,317.3c0,1.5-0.4,2.3-1.9,2.3h-22.5c-1.3,0-1.7-0.8-1.7-2.3V157.5c0-1.5,0.6-1.8,1.7-1.8
		H201c1.3,0,1.7,0.3,1.7,1.8V317.3z"/>
	<path id="XMLID_34_" class="st0" d="M229.1,260.9c0-35.8,22.7-66,58.8-66c4.9,0,8.5,0.5,12.1,1.7v-40.1c0-1.2,0.4-1.7,1.3-1.7h23.1
		c0.8,0,1.1,0.5,1.1,1.5v135.4c0,5.2,0.4,11.9,0.6,15.8c0.2,1.2,0,1.7-1.1,2.5c-13.4,7.7-28.4,12.1-42.4,12.1
		C251.4,322.2,229.1,302.2,229.1,260.9z M300,220.2c-3.2-1.5-7.6-2.2-12.5-2.2c-19.1,0-32,16.3-32,41.5c0,27.9,14,39,30.1,39
		c5.3,0,10.6-1,14.4-2.5V220.2z"/>
</g>
</svg>
