<svg id="Layer_1" data-name="Layer 1" xmlns="http://www.w3.org/2000/svg" viewBox="0 0 763.61 790.69"><defs><style>.cls-1{fill:#b78628;stroke:#010000;stroke-miterlimit:10;stroke-width:2px;}</style></defs><path class="cls-1" d="M83.58,552,444.91,906a1.28,1.28,0,0,0,2.17-.93l-1.53-148.16a1.28,1.28,0,0,0-2.19-.88l-8.13,8.3a1.26,1.26,0,0,1-1.8,0l-69.62-68.19a1.28,1.28,0,0,1,0-1.8L432,624.72a1.28,1.28,0,0,1,1.8,0l8.3,8.14a1.28,1.28,0,0,0,2.17-.93l-4.58-443.37a1.28,1.28,0,0,0-2.19-.88L83.56,550.23A1.28,1.28,0,0,0,83.58,552Zm138.24,5a1.27,1.27,0,0,1,0-1.81l69.08-70.52,67.82-69.24a1.28,1.28,0,0,1,2.19.88l1.42,137.81a1.23,1.23,0,0,1-.36.9l-68.72,70.15a1.28,1.28,0,0,1-1.8,0Z" transform="translate(-82.2 -116.65)"/><path class="cls-1" d="M844.42,472,483.09,118a1.28,1.28,0,0,0-2.17.93l1.53,148.16a1.28,1.28,0,0,0,2.19.88l8.13-8.3a1.26,1.26,0,0,1,1.8,0l69.62,68.19a1.28,1.28,0,0,1,0,1.8L496,399.28a1.28,1.28,0,0,1-1.8,0l-8.3-8.14a1.28,1.28,0,0,0-2.17.93l4.58,443.37a1.28,1.28,0,0,0,2.19.88L844.44,473.77A1.28,1.28,0,0,0,844.42,472Zm-138.24-5a1.27,1.27,0,0,1,0,1.81l-69.08,70.52L569.3,608.52a1.28,1.28,0,0,1-2.19-.88l-1.42-137.81a1.23,1.23,0,0,1,.36-.9l68.72-70.15a1.28,1.28,0,0,1,1.8,0Z" transform="translate(-82.2 -116.65)"/></svg>